<svg xmlns="http://www.w3.org/2000/svg" viewBox="0 0 467 95">
  <defs>
    <style>
      .cls-1 {
        fill: none;
        stroke: #ffffff;
        stroke-miterlimit: 10;
        stroke-width: 4px;
      }

      .cls-2 {
        fill: #ffffff;
      }
    </style>
  </defs>
  <g>
    <rect class="cls-1" x="2" y="2" width="463" height="91"/>
    <g>
      <path class="cls-2" d="M92.28,46.65c0,2.5-.37,4.75-1.12,6.75-.75,2-1.8,3.7-3.16,5.1-1.36,1.4-2.99,2.48-4.88,3.23-1.9.75-3.99,1.12-6.28,1.12h-11.83V30.48h11.83c2.29,0,4.38.37,6.28,1.12s3.53,1.82,4.88,3.23c1.36,1.4,2.41,3.1,3.16,5.1.75,2,1.12,4.24,1.12,6.73ZM89.85,46.65c0-2.26-.31-4.27-.94-6.04-.63-1.77-1.51-3.26-2.65-4.48-1.14-1.22-2.52-2.15-4.12-2.79-1.6-.64-3.37-.96-5.31-.96h-9.47v28.57h9.47c1.94,0,3.71-.32,5.31-.96,1.6-.64,2.97-1.57,4.12-2.79,1.14-1.22,2.03-2.71,2.65-4.48.62-1.77.94-3.79.94-6.06Z"/>
      <path class="cls-2" d="M119.22,60.9l-.05,1.94h-19.4V30.48h19.4v1.94h-17.04v13.08h14.18v1.9h-14.18v13.5h17.09Z"/>
      <path class="cls-2" d="M142.03,34.42c-.14.26-.34.39-.59.39-.2,0-.45-.14-.77-.42s-.74-.59-1.27-.94-1.2-.66-2-.95c-.8-.29-1.79-.43-2.96-.43s-2.21.17-3.1.5c-.89.34-1.64.79-2.24,1.37-.6.58-1.06,1.25-1.37,2.01s-.47,1.56-.47,2.4c0,1.1.23,2.01.7,2.72.47.72,1.08,1.33,1.84,1.83.76.5,1.63.93,2.6,1.27.97.34,1.96.68,2.99,1.02,1.02.34,2.02.71,2.98,1.11.97.4,1.83.91,2.6,1.52s1.38,1.36,1.84,2.25c.46.89.7,2,.7,3.33s-.23,2.63-.7,3.83c-.47,1.2-1.14,2.24-2.02,3.12-.88.88-1.97,1.58-3.25,2.09-1.28.51-2.75.77-4.39.77-2.14,0-3.97-.38-5.51-1.13-1.54-.75-2.89-1.79-4.05-3.1l.64-1.01c.18-.23.4-.34.64-.34.14,0,.31.09.53.27s.47.41.78.67c.3.27.67.56,1.1.87.43.31.92.6,1.49.87.56.27,1.21.49,1.94.67.73.18,1.56.27,2.49.27,1.28,0,2.42-.19,3.43-.58,1.01-.39,1.86-.92,2.55-1.59.69-.67,1.22-1.47,1.59-2.39.37-.92.55-1.91.55-2.96,0-1.14-.23-2.09-.7-2.83-.47-.74-1.08-1.36-1.84-1.85-.76-.5-1.63-.91-2.6-1.25-.97-.34-1.96-.66-2.99-.98-1.02-.32-2.02-.68-2.99-1.07-.97-.4-1.83-.9-2.6-1.52s-1.38-1.39-1.84-2.31c-.47-.92-.7-2.08-.7-3.47,0-1.08.21-2.13.62-3.13.41-1.01,1.01-1.89,1.81-2.67.79-.77,1.77-1.39,2.94-1.85,1.17-.46,2.5-.7,3.99-.7,1.68,0,3.18.27,4.52.8,1.33.53,2.55,1.35,3.65,2.45l-.55,1.05Z"/>
      <path class="cls-2" d="M153.15,62.85h-2.36V30.48h2.36v32.37Z"/>
      <path class="cls-2" d="M188.56,48.16v11.51c-1.62,1.14-3.34,2.02-5.17,2.63-1.83.61-3.89.92-6.18.92-2.56,0-4.86-.39-6.91-1.18-2.04-.79-3.79-1.9-5.23-3.34-1.44-1.44-2.55-3.18-3.32-5.23-.77-2.04-1.16-4.32-1.16-6.82s.38-4.77,1.13-6.81c.75-2.04,1.84-3.77,3.25-5.22,1.41-1.44,3.12-2.55,5.11-3.34,2-.79,4.25-1.18,6.75-1.18,1.24,0,2.38.08,3.42.25,1.04.17,2.02.42,2.92.74.9.33,1.74.73,2.52,1.21.78.48,1.52,1.03,2.24,1.66l-.64,1.01c-.21.37-.53.45-.96.25-.23-.09-.56-.3-.98-.64s-1.01-.69-1.76-1.05c-.75-.37-1.67-.69-2.78-.98-1.11-.29-2.45-.43-4.04-.43-2.1,0-4.01.34-5.71,1.01-1.7.67-3.15,1.63-4.35,2.88-1.2,1.25-2.12,2.78-2.77,4.58-.65,1.8-.97,3.82-.97,6.06s.32,4.32.97,6.13c.65,1.81,1.59,3.35,2.81,4.62,1.23,1.27,2.72,2.23,4.47,2.91,1.75.67,3.73,1.01,5.92,1.01.96,0,1.85-.06,2.66-.18.82-.12,1.59-.29,2.33-.51.74-.22,1.46-.5,2.15-.82.69-.33,1.4-.7,2.12-1.11v-8.72h-6.2c-.17,0-.31-.05-.42-.16-.11-.11-.17-.23-.17-.37v-1.28h8.92Z"/>
      <path class="cls-2" d="M221.31,30.48v32.37h-1.1c-.2,0-.36-.03-.49-.1-.13-.07-.26-.19-.38-.35l-21.02-28.09c.04.46.07.89.07,1.3v27.24h-2.06V30.48h1.17c.21,0,.38.03.49.08.11.05.24.17.38.35l20.98,28.02c-.05-.46-.07-.89-.07-1.3v-27.15h2.04Z"/>
      <path class="cls-2" d="M270.7,62.85h-3.96c-.44,0-.8-.05-1.08-.16-.27-.11-.57-.33-.89-.66l-3.32-3.34c-1.43,1.39-3.08,2.49-4.95,3.31-1.87.82-3.92,1.22-6.17,1.22-1.22,0-2.41-.21-3.58-.62-1.17-.41-2.21-1.01-3.14-1.8-.93-.79-1.68-1.74-2.24-2.87s-.85-2.4-.85-3.82c0-1.07.18-2.08.54-3.03s.86-1.83,1.5-2.64c.64-.81,1.4-1.53,2.26-2.17s1.82-1.19,2.86-1.65c-.93-1.19-1.62-2.34-2.06-3.44-.44-1.11-.66-2.25-.66-3.44,0-1.11.2-2.16.61-3.13s.99-1.83,1.75-2.55c.76-.72,1.69-1.3,2.78-1.72,1.09-.42,2.31-.63,3.67-.63,1.2,0,2.3.19,3.29.58.99.39,1.84.9,2.56,1.54s1.29,1.38,1.7,2.23c.42.85.66,1.73.72,2.64l-2.54.5c-.5.12-.88-.11-1.12-.71-.11-.4-.28-.81-.51-1.24-.24-.43-.54-.82-.92-1.17-.37-.35-.82-.64-1.35-.87-.53-.23-1.14-.34-1.84-.34-.76,0-1.45.12-2.07.37-.62.24-1.14.58-1.58,1.02-.43.44-.77.95-1,1.53-.23.59-.34,1.22-.34,1.91,0,.53.06,1.04.18,1.53.12.49.32.98.58,1.49s.61,1.01,1.02,1.53c.41.52.91,1.07,1.49,1.65l9.42,9.58c.58-1.04,1.04-2.12,1.4-3.24.35-1.12.58-2.24.69-3.35.03-.29.12-.52.27-.69s.37-.25.64-.25h2.49c-.01,1.75-.29,3.47-.82,5.16-.53,1.69-1.3,3.27-2.31,4.75l6.86,6.98ZM249.56,46.7c-1.62.85-2.83,1.89-3.65,3.11-.82,1.22-1.22,2.55-1.22,3.98,0,.99.18,1.86.55,2.62.37.75.85,1.39,1.44,1.91.59.52,1.27.91,2.04,1.18.76.27,1.54.4,2.33.4,1.71,0,3.25-.31,4.61-.94,1.37-.62,2.56-1.46,3.58-2.52l-9.68-9.75Z"/>
      <path class="cls-2" d="M310.52,55.05c.34,0,.63.13.89.39l2.42,2.63c-1.34,1.66-2.99,2.94-4.95,3.82-1.96.88-4.31,1.33-7.06,1.33-2.46,0-4.66-.42-6.62-1.26-1.96-.84-3.63-2.01-5.02-3.5-1.39-1.49-2.45-3.28-3.19-5.35-.74-2.07-1.11-4.34-1.11-6.79s.4-4.76,1.19-6.83c.79-2.07,1.91-3.85,3.35-5.34,1.44-1.49,3.16-2.66,5.16-3.49,2-.83,4.21-1.25,6.63-1.25s4.55.4,6.42,1.19c1.87.79,3.46,1.83,4.77,3.11l-2.06,2.86c-.12.18-.28.34-.47.48-.19.14-.45.21-.79.21-.23,0-.46-.06-.71-.19-.24-.13-.51-.29-.8-.48-.29-.19-.62-.4-1.01-.63-.38-.23-.82-.44-1.33-.63-.5-.19-1.09-.35-1.75-.48s-1.43-.19-2.3-.19c-1.48,0-2.83.26-4.06.79-1.23.53-2.28,1.29-3.17,2.29-.88,1-1.57,2.22-2.06,3.66-.49,1.44-.73,3.08-.73,4.93s.26,3.52.79,4.96c.53,1.45,1.24,2.67,2.14,3.66.9.99,1.96,1.75,3.18,2.28,1.22.53,2.53.79,3.93.79.84,0,1.6-.05,2.28-.14.68-.09,1.3-.24,1.88-.43.57-.2,1.11-.45,1.62-.77s1.02-.7,1.52-1.16c.15-.14.31-.25.48-.33.17-.08.34-.13.53-.13Z"/>
      <path class="cls-2" d="M348.91,46.31c0,2.42-.4,4.67-1.2,6.74s-1.93,3.85-3.4,5.36c-1.46,1.51-3.23,2.69-5.28,3.53-2.06.85-4.35,1.27-6.86,1.27s-4.78-.42-6.84-1.27c-2.06-.85-3.82-2.02-5.3-3.53-1.47-1.51-2.61-3.3-3.42-5.36s-1.21-4.31-1.21-6.74.4-4.67,1.21-6.74c.81-2.07,1.95-3.85,3.42-5.36s3.24-2.69,5.3-3.53c2.06-.85,4.34-1.27,6.84-1.27,1.68,0,3.25.19,4.73.58,1.48.39,2.84.94,4.07,1.65s2.34,1.57,3.33,2.58,1.82,2.15,2.5,3.4,1.21,2.61,1.57,4.07c.36,1.46.54,3,.54,4.62ZM342.62,46.31c0-1.81-.24-3.44-.73-4.88-.49-1.44-1.18-2.67-2.08-3.67-.9-1.01-1.99-1.78-3.28-2.31-1.29-.53-2.74-.8-4.36-.8s-3.07.27-4.36.8c-1.29.53-2.39,1.3-3.29,2.31-.91,1.01-1.6,2.23-2.09,3.67-.49,1.44-.73,3.07-.73,4.88s.24,3.44.73,4.88,1.19,2.66,2.09,3.66,2.01,1.77,3.29,2.3c1.29.53,2.74.8,4.36.8s3.07-.27,4.36-.8c1.29-.53,2.38-1.3,3.28-2.3s1.59-2.22,2.08-3.66c.49-1.44.73-3.07.73-4.88Z"/>
      <path class="cls-2" d="M383.7,46.31c0,2.42-.4,4.65-1.21,6.68s-1.94,3.77-3.41,5.24c-1.46,1.46-3.23,2.6-5.28,3.41-2.06.81-4.35,1.21-6.86,1.21h-12.6V29.77h12.6c2.52,0,4.8.41,6.86,1.22,2.06.82,3.82,1.95,5.28,3.41,1.46,1.46,2.6,3.2,3.41,5.23.81,2.03,1.21,4.25,1.21,6.68ZM377.39,46.31c0-1.81-.24-3.44-.72-4.88-.48-1.44-1.17-2.66-2.08-3.66-.91-1-2-1.76-3.29-2.3-1.29-.53-2.74-.8-4.36-.8h-6.43v23.29h6.43c1.62,0,3.07-.27,4.36-.8s2.39-1.3,3.29-2.3,1.6-2.22,2.08-3.66.72-3.07.72-4.88Z"/>
      <path class="cls-2" d="M395.3,34.67v9.17h11.57v4.74h-11.57v9.36h14.69v4.92h-20.86V29.77h20.86v4.9h-14.69Z"/>
    </g>
  </g>
</svg>